<?xml version="1.0" encoding="UTF-8"?>
<svg id="Layer_1" data-name="Layer 1" xmlns="http://www.w3.org/2000/svg" viewBox="0 0 800 800">
  <defs>
    <style>
      .cls-1 {
        fill: none;
      }

      .cls-1, .cls-2 {
        stroke-width: 0px;
      }

      .cls-2 {
        fill: #fff;
      }
    </style>
  </defs>
  <rect class="cls-1" width="800" height="800"/>
  <path class="cls-2" d="M700,233.33h-66.67V100c0-36.83-29.83-66.67-66.67-66.67H233.33c-36.83,0-66.67,29.83-66.67,66.67v66.67h-66.67c-36.83,0-66.67,29.83-66.67,66.67v133.33c0,36.83,29.83,66.67,66.67,66.67h66.67v266.67c0,36.83,29.83,66.67,66.67,66.67h333.33c36.83,0,66.67-29.83,66.67-66.67v-66.67h66.67c36.83,0,66.67-29.83,66.67-66.67v-266.67c0-36.83-29.83-66.67-66.67-66.67ZM566.67,700H233.33v-266.67h66.67c36.83,0,66.67-29.83,66.67-66.67v-133.33c0-36.83-29.83-66.67-66.67-66.67h-66.67v-66.67h333.33v133.33h-66.67c-36.83,0-66.67,29.83-66.67,66.67v266.67c0,36.83,29.83,66.67,66.67,66.67h66.67v66.67ZM700,566.67h-200v-266.67h200v266.67Z"/>
</svg>