<?xml version="1.0" encoding="UTF-8"?>
<svg id="Layer_1" data-name="Layer 1" xmlns="http://www.w3.org/2000/svg" viewBox="0 0 666.67 600">
  <defs>
    <style>
      .cls-1 {
        fill: none;
        stroke: #fff;
        stroke-linecap: round;
        stroke-linejoin: round;
        stroke-width: 66.67px;
      }
    </style>
  </defs>
  <path class="cls-1" d="M100,433.33v133.33M133.33,33.33v133.33M166.67,500H33.33M200,100H66.67M366.67,33.33l58.43,148.15c6.26,15.88,9.4,23.82,14.19,30.52,4.25,5.94,9.45,11.13,15.38,15.38,6.69,4.8,14.64,7.93,30.52,14.19l148.15,58.43-148.15,58.43c-15.88,6.26-23.82,9.4-30.52,14.19-5.94,4.25-11.13,9.45-15.38,15.38-4.8,6.69-7.93,14.64-14.19,30.52l-58.43,148.15-58.43-148.15c-6.26-15.88-9.4-23.82-14.19-30.52-4.25-5.94-9.45-11.13-15.38-15.38-6.69-4.8-14.64-7.93-30.52-14.19l-148.15-58.43,148.15-58.43c15.88-6.26,23.82-9.4,30.52-14.19,5.94-4.25,11.13-9.45,15.38-15.38,4.8-6.7,7.93-14.64,14.19-30.52l58.43-148.15Z"/>
</svg>