<?xml version="1.0" encoding="utf-8"?><!-- Uploaded to: SVG Repo, www.svgrepo.com, Generator: SVG Repo Mixer Tools -->
<svg width="800px" height="800px" viewBox="0 0 24 24" fill="none" xmlns="http://www.w3.org/2000/svg">
<path d="M5 16V20M6 4V8M7 18H3M8 6H4M13 4L14.7528 8.44437C14.9407 8.92083 15.0347 9.15906 15.1786 9.35994C15.3061 9.538 15.462 9.69391 15.6401 9.82143C15.8409 9.9653 16.0792 10.0593 16.5556 10.2472L21 12L16.5556 13.7528C16.0792 13.9407 15.8409 14.0347 15.6401 14.1786C15.462 14.3061 15.3061 14.462 15.1786 14.6401C15.0347 14.8409 14.9407 15.0792 14.7528 15.5556L13 20L11.2472 15.5556C11.0593 15.0792 10.9653 14.8409 10.8214 14.6401C10.6939 14.462 10.538 14.3061 10.3599 14.1786C10.1591 14.0347 9.92083 13.9407 9.44437 13.7528L5 12L9.44437 10.2472C9.92083 10.0593 10.1591 9.9653 10.3599 9.82143C10.538 9.69391 10.6939 9.538 10.8214 9.35994C10.9653 9.15906 11.0593 8.92083 11.2472 8.44437L13 4Z" stroke="#000000" stroke-width="2" stroke-linecap="round" stroke-linejoin="round"/>
</svg>